:SAMPLES-PER-SECOND 30
:FRAME-RANGE 1-1390
:FULLY-SPECIFIED
:DEGREES
391
root  0.848372 35.2725 -6.59537 -3.78765 22.4341 3.46979
RightUpLeg  -77.0888 -13.6259 58.1311
RightLeg  126.42 10.2402 -12.0464
RightFoot  -33.7386 -0.342029 -0.56645
RightToes  6.35937e-011 1.2921e-014 -6.02303e-014
Spine  19.0932 -3.64978 2.36979
Spine1  -1.76445 -1.05032 -4.25764
HEad  24.248 -9.43509 0.265112
LeftShoulder1  2.67269 -8.03609 -17.1557
LeftArm  31.7724 -23.0863 -65.6618
LeftForeArm  34.1979 -0.0197351 -17.9907
LeftHand  -0.0216632 6.43236 1.31331
RightShoulder  1.92054 4.74366 17.3278
RightArm  45.6481 25.7834 66.2395
RightForeArm  8.85898 31.7886 6.49838
RightHand  0.525401 -14.4121 -7.4785
LeftUpLeg  -23.7611 -12.5225 -12.6528
LeftLeg  51.1259 5.88097 8.24495
LeftFoot  -19.7434 0.474617 4.84257
LeftToes  4.52251e-011 4.07896e-011 -5.42348e-012
392
root  1.2659 35.4431 -5.10249 -3.90614 22.7315 3.55379
RightUpLeg  -78.3675 -14.8602 59.0283
RightLeg  126.371 9.1201 -10.7265
RightFoot  -34.1653 -0.32759 -0.469205
RightToes  6.35937e-011 1.2921e-014 -6.02303e-014
Spine  17.4581 -3.82626 1.29965
Spine1  -1.40516 -1.65026 -2.88554
HEad  24.6935 -9.24633 1.43042
LeftShoulder1  2.7503 -8.20738 -17.5068
LeftArm  32.6349 -23.1268 -65.459
LeftForeArm  34.0467 -0.343667 -18.012
LeftHand  -0.0201504 6.88143 1.22812
RightShoulder  1.87995 4.31995 18.1826
RightArm  45.3903 23.7528 67.7205
RightForeArm  9.06537 30.491 6.161
RightHand  0.969709 -15.1209 -12.0478
LeftUpLeg  -20.4158 -12.201 -13.1055
LeftLeg  50.8998 5.82898 8.11269
LeftFoot  -22.199 0.559381 4.47901
LeftToes  4.52251e-011 4.07896e-011 -5.42348e-012
393
root  1.62342 36.2257 -3.56915 -4.04229 22.1977 2.74727
RightUpLeg  -79.49 -15.5884 61.6191
RightLeg  125.178 8.90134 -10.9261
RightFoot  -33.993 -0.277023 -0.226406
RightToes  6.35937e-011 1.2921e-014 -6.02303e-014
Spine  15.937 -4.03062 1.57064
Spine1  -2.05014 -1.90884 -2.53986
HEad  25.5664 -8.99906 2.55349
LeftShoulder1  2.79013 -8.29564 -17.682
LeftArm  31.6638 -23.2503 -64.9484
LeftForeArm  36.4874 -0.232487 -17.9073
LeftHand  -0.0173778 7.44175 1.21746
RightShoulder  1.83244 4.01055 18.6024
RightArm  48.2986 21.514 70.0536
RightForeArm  8.74921 28.2505 5.63829
RightHand  1.46925 -15.4628 -17.1194
LeftUpLeg  -15.5781 -11.1965 -12.1097
LeftLeg  46.6365 6.05263 7.25769
LeftFoot  -22.5443 0.544464 4.16729
LeftToes  4.52251e-011 4.07896e-011 -5.42348e-012
394
root  2.00688 37.3586 -1.95679 -4.07744 21.1196 1.84498
RightUpLeg  -80.3118 -15.0834 63.4819
RightLeg  124.386 8.37433 -10.5653
RightFoot  -33.9279 -0.148937 0.412156
RightToes  6.35937e-011 1.2921e-014 -6.02303e-014
Spine  14.2583 -4.1489 2.25283
Spine1  -2.91426 -1.94231 -2.49365
HEad  27.2132 -8.9679 2.96255
LeftShoulder1  2.81552 -8.25983 -18.0008
LeftArm  34.7385 -22.5386 -64.1044
LeftForeArm  34.2588 -1.15386 -18.0139
LeftHand  -0.0173305 7.39845 0.937432
RightShoulder  1.78126 3.76799 18.7431
RightArm  50.8113 19.6889 72.7671
RightForeArm  8.82403 25.1727 4.93179
RightHand  2.1406 -15.6585 -23.8937
LeftUpLeg  -10.159 -10.9499 -10.9177
LeftLeg  40.6063 6.53962 6.37236
LeftFoot  -19.958 0.283335 2.16995
LeftToes  4.52251e-011 4.07896e-011 -5.42348e-012
395
root  2.32694 38.5461 -0.368525 -4.70755 21.1766 1.18641
RightUpLeg  -81.6525 -14.4795 63.9763
RightLeg  124.341 7.37624 -9.27806
RightFoot  -34.6731 -0.059663 0.856482
RightToes  6.35937e-011 1.2921e-014 -6.02303e-014
Spine  12.6892 -4.38958 1.65409
Spine1  -2.57881 -2.41132 -1.23257
HEad  28.5647 -9.20443 3.09529
LeftShoulder1  2.91779 -8.51998 -18.3567
LeftArm  37.6372 -21.9618 -63.494
LeftForeArm  31.0709 -1.92164 -18.1167
LeftHand  -0.017195 7.20526 1.02321
RightShoulder  1.72912 3.51012 18.9397
RightArm  50.3255 18.721 74.2791
RightForeArm  14.588 23.5891 4.3105
RightHand  2.5733 -15.5632 -28.6214
LeftUpLeg  -5.69291 -11.5338 -10.0093
LeftLeg  36.8704 6.12473 5.2914
LeftFoot  -13.7646 0.048186 -1.62445
LeftToes  4.52251e-011 4.07896e-011 -5.42348e-012
396
root  2.48912 39.6565 1.06406 -5.51839 21.6005 0.217156
RightUpLeg  -83.1249 -13.5199 64.0083
RightLeg  124.093 6.65788 -8.40888
RightFoot  -34.875 0.0280417 1.27687
RightToes  6.35937e-011 1.2921e-014 -6.02303e-014
Spine  12.3116 -4.66293 0.884395
Spine1  -2.89362 -2.96424 0.176649
HEad  30.0164 -9.97932 3.4801
LeftShoulder1  3.01923 -8.92002 -18.3801
LeftArm  34.0326 -22.097 -63.4655
LeftForeArm  33.5352 -0.866891 -18.0439
LeftHand  -0.0240723 7.29469 0.884397
RightShoulder  1.64414 3.11595 19.1814
RightArm  50.4972 18.7205 75.2144
RightForeArm  22.2605 23.4273 3.94832
RightHand  2.92646 -15.9408 -31.1613
LeftUpLeg  -3.94485 -11.5786 -8.18829
LeftLeg  36.4678 4.50994 3.95114
LeftFoot  -4.94044 0.344001 -5.62005
LeftToes  4.52251e-011 4.07896e-011 -5.42348e-012
397
root  2.72048 40.3562 2.35459 -6.1204 22.2764 -0.168539
RightUpLeg  -84.8231 -12.6956 63.3666
RightLeg  124.636 6.31311 -7.78736
RightFoot  -35.1232 0.0325815 1.29303
RightToes  6.35937e-011 1.2921e-014 -6.02303e-014
Spine  12.6028 -5.10186 0.403003
Spine1  -3.30463 -3.39344 0.752822
HEad  30.5163 -11.5009 3.66393
LeftShoulder1  3.12775 -9.57033 -17.9403
LeftArm  27.665 -22.4087 -63.6495
LeftForeArm  38.2509 0.929902 -17.7369
LeftHand  -0.0226872 7.02047 0.482216
RightShoulder  1.59243 2.98342 18.8708
RightArm  49.673 18.9318 76.2895
RightForeArm  30.0259 24.596 3.6847
RightHand  3.09656 -16.3599 -31.6552
LeftUpLeg  -5.48856 -12.0759 -7.38668
LeftLeg  40.5707 2.69643 2.87072
LeftFoot  3.45593 0.36672 -2.98587
LeftToes  4.52251e-011 4.07896e-011 -5.42348e-012
